<svg xmlns="http://www.w3.org/2000/svg" xmlns:xlink="http://www.w3.org/1999/xlink" viewBox="0 0 176.16 176.16"><defs><style>.cls-1{opacity:0.29;fill:url(#linear-gradient);}.cls-2{fill:url(#linear-gradient-2);}.cls-3{fill:#fff;}</style><linearGradient id="linear-gradient" x1="-46.25" y1="46.57" x2="216.84" y2="127.87" gradientUnits="userSpaceOnUse"><stop offset="0" stop-color="#3636ff"/><stop offset="1" stop-color="#2525ce"/></linearGradient><linearGradient id="linear-gradient-2" x1="-13.63" y1="56.65" x2="185.58" y2="118.2" xlink:href="#linear-gradient"/></defs><title>B_Button_Pressed</title><g id="Layer_2" data-name="Layer 2"><g id="Layer_1-2" data-name="Layer 1"><circle class="cls-1" cx="88.08" cy="88.08" r="88.08"/><circle class="cls-2" cx="88.08" cy="88.08" r="66.69"/><path class="cls-3" d="M67.58,65.9H93.24q6.41,0,9.84,3.18a10.29,10.29,0,0,1,3.44,7.86,9.93,9.93,0,0,1-2.45,6.75,11,11,0,0,1-4.78,3,12.4,12.4,0,0,1,7,3.94,10.88,10.88,0,0,1,2.25,7,12.08,12.08,0,0,1-1.6,6.2,11.85,11.85,0,0,1-4.39,4.36,14.52,14.52,0,0,1-5.2,1.45,60.57,60.57,0,0,1-6.14.6H67.58ZM81.41,83.3h6c2.13,0,3.62-.37,4.46-1.11A4,4,0,0,0,93.08,79a3.76,3.76,0,0,0-1.25-3c-.84-.73-2.3-1.09-4.37-1.09h-6Zm0,17.42h7q3.54,0,5-1.25a4.23,4.23,0,0,0,1.45-3.38,3.91,3.91,0,0,0-1.44-3.16c-1-.79-2.63-1.19-5-1.19h-7Z"/></g></g></svg>