<svg xmlns="http://www.w3.org/2000/svg" xmlns:xlink="http://www.w3.org/1999/xlink" viewBox="0 0 133.38 133.38"><defs><style>.cls-1{fill:url(#linear-gradient);}.cls-2{fill:#fff;}</style><linearGradient id="linear-gradient" x1="-35.02" y1="35.26" x2="164.19" y2="96.82" gradientUnits="userSpaceOnUse"><stop offset="0" stop-color="#3636ff"/><stop offset="1" stop-color="#2525ce"/></linearGradient></defs><title>B_Button_Unpressed</title><g id="Layer_2" data-name="Layer 2"><g id="Layer_1-2" data-name="Layer 1"><circle class="cls-1" cx="66.69" cy="66.69" r="66.69"/><path class="cls-2" d="M46.19,44.52H71.85q6.41,0,9.85,3.17a10.29,10.29,0,0,1,3.43,7.87,9.92,9.92,0,0,1-2.45,6.74,11,11,0,0,1-4.78,3c3.19.77,5.53,2.08,7,4a10.8,10.8,0,0,1,2.26,7,12.07,12.07,0,0,1-1.61,6.2,11.82,11.82,0,0,1-4.38,4.36A14.59,14.59,0,0,1,76,88.26a61.39,61.39,0,0,1-6.14.61H46.19ZM60,61.91h6c2.14,0,3.62-.37,4.46-1.1a4,4,0,0,0,1.26-3.2,3.78,3.78,0,0,0-1.26-3c-.84-.73-2.29-1.09-4.37-1.09H60Zm0,17.43h7q3.54,0,5-1.26a4.23,4.23,0,0,0,1.45-3.37A3.91,3.91,0,0,0,72,71.55q-1.44-1.2-5-1.2H60Z"/></g></g></svg>