<svg xmlns="http://www.w3.org/2000/svg" xmlns:xlink="http://www.w3.org/1999/xlink" viewBox="0 0 30 170"><defs><style>.cls-1{fill:url(#linear-gradient);}.cls-2{fill:#0c80a8;}.cls-3{fill:#fff;opacity:0.8;}</style><linearGradient id="linear-gradient" x1="-234.81" y1="-112.15" x2="-145.98" y2="-78.36" gradientTransform="translate(107.78 -117.43) rotate(-90)" gradientUnits="userSpaceOnUse"><stop offset="0" stop-color="#1cb7f8"/><stop offset="1" stop-color="#13a5d8"/></linearGradient></defs><title>paddle_p2</title><g id="Layer_2" data-name="Layer 2"><g id="Layer_1-2" data-name="Layer 1"><path class="cls-1" d="M3.15,0H6.43A3.16,3.16,0,0,1,9.58,3.15V7.72A23.13,23.13,0,0,1,24.44,29.25V140.76A23.12,23.12,0,0,1,9.58,162.28v4.58A3.15,3.15,0,0,1,6.43,170H3.15A3.15,3.15,0,0,1,0,166.86V3.15A3.16,3.16,0,0,1,3.15,0Z"/><path class="cls-2" d="M9.58,3.15V7.72A23.13,23.13,0,0,1,24.44,29.25V140.76A23.12,23.12,0,0,1,9.58,162.28v4.58A3.15,3.15,0,0,1,6.43,170H8.57a3.15,3.15,0,0,0,3.15-3.14V163.3A23.13,23.13,0,0,0,30,140.76V29.25A23.11,23.11,0,0,0,11.72,6.71V3.15A3.16,3.16,0,0,0,8.57,0H6.43A3.16,3.16,0,0,1,9.58,3.15Z"/><rect class="cls-3" x="-11.86" y="135.94" width="33.26" height="3.59" rx="1.8" transform="translate(-132.96 142.51) rotate(-90)"/><rect class="cls-3" x="2.98" y="115.9" width="3.59" height="3.59" rx="1.8" transform="translate(-112.92 122.47) rotate(-90)"/></g></g></svg>