<svg xmlns="http://www.w3.org/2000/svg" xmlns:xlink="http://www.w3.org/1999/xlink" viewBox="0 0 170 30"><defs><style>.cls-1{fill:url(#linear-gradient);}.cls-2{fill:#bc1e4f;}.cls-3{fill:#fff;opacity:0.8;}</style><linearGradient id="linear-gradient" x1="52.62" y1="-4.37" x2="141.45" y2="29.42" gradientUnits="userSpaceOnUse"><stop offset="0" stop-color="#e43867"/><stop offset="1" stop-color="#e43867"/></linearGradient></defs><title>paddle_p1</title><g id="Layer_2" data-name="Layer 2"><g id="Layer_1-2" data-name="Layer 1"><path class="cls-1" d="M170,3.15V6.43a3.16,3.16,0,0,1-3.15,3.15h-4.57a23.13,23.13,0,0,1-21.53,14.86H29.24A23.12,23.12,0,0,1,7.72,9.58H3.14A3.15,3.15,0,0,1,0,6.43V3.15A3.15,3.15,0,0,1,3.14,0H166.85A3.16,3.16,0,0,1,170,3.15Z"/><path class="cls-2" d="M166.85,9.58h-4.57a23.13,23.13,0,0,1-21.53,14.86H29.24A23.12,23.12,0,0,1,7.72,9.58H3.14A3.15,3.15,0,0,1,0,6.43V8.57a3.15,3.15,0,0,0,3.14,3.15H6.7A23.13,23.13,0,0,0,29.24,30H140.75a23.11,23.11,0,0,0,22.54-18.28h3.56A3.16,3.16,0,0,0,170,8.57V6.43A3.16,3.16,0,0,1,166.85,9.58Z"/><rect class="cls-3" x="15.63" y="2.98" width="33.26" height="3.59" rx="1.8"/><rect class="cls-3" x="50.51" y="2.98" width="3.59" height="3.59" rx="1.8"/></g></g></svg>