<svg xmlns="http://www.w3.org/2000/svg" xmlns:xlink="http://www.w3.org/1999/xlink" viewBox="0 0 170 30"><defs><style>.cls-1{fill:url(#linear-gradient);}.cls-2{fill:#b59612;}.cls-3{fill:#fff;opacity:0.8;}</style><linearGradient id="linear-gradient" y1="12.22" x2="170" y2="12.22" gradientTransform="translate(170 30) rotate(180)" gradientUnits="userSpaceOnUse"><stop offset="0" stop-color="#ffde4a"/><stop offset="1" stop-color="#edc211"/></linearGradient></defs><title>paddle_p3</title><g id="Layer_2" data-name="Layer 2"><g id="Layer_1-2" data-name="Layer 1"><path class="cls-1" d="M0,26.85V23.57a3.16,3.16,0,0,1,3.15-3.15H7.72A23.13,23.13,0,0,1,29.25,5.56H140.76a23.12,23.12,0,0,1,21.52,14.86h4.58A3.15,3.15,0,0,1,170,23.57v3.28A3.15,3.15,0,0,1,166.86,30H3.15A3.16,3.16,0,0,1,0,26.85Z"/><path class="cls-2" d="M3.15,20.42H7.72A23.13,23.13,0,0,1,29.25,5.56H140.76a23.12,23.12,0,0,1,21.52,14.86h4.58A3.15,3.15,0,0,1,170,23.57V21.43a3.15,3.15,0,0,0-3.14-3.15H163.3A23.13,23.13,0,0,0,140.76,0H29.25A23.11,23.11,0,0,0,6.71,18.28H3.15A3.16,3.16,0,0,0,0,21.43v2.14A3.16,3.16,0,0,1,3.15,20.42Z"/><rect class="cls-3" x="121.11" y="23.43" width="33.26" height="3.59" rx="1.8" transform="translate(275.48 50.45) rotate(-180)"/><rect class="cls-3" x="115.9" y="23.43" width="3.59" height="3.59" rx="1.8" transform="translate(235.38 50.45) rotate(-180)"/></g></g></svg>