<svg xmlns="http://www.w3.org/2000/svg" xmlns:xlink="http://www.w3.org/1999/xlink" viewBox="0 0 30 170"><defs><style>.cls-1{fill:url(#linear-gradient);}.cls-2{fill:#d36d11;}.cls-3{fill:#fff;opacity:0.8;}</style><linearGradient id="linear-gradient" x1="393.37" y1="411.2" x2="563.37" y2="411.2" gradientTransform="translate(428.98 -393.37) rotate(90)" gradientUnits="userSpaceOnUse"><stop offset="0" stop-color="#fd912d"/><stop offset="1" stop-color="#f28314"/></linearGradient></defs><title>paddle_p4</title><g id="Layer_2" data-name="Layer 2"><g id="Layer_1-2" data-name="Layer 1"><path class="cls-1" d="M26.85,170H23.57a3.16,3.16,0,0,1-3.15-3.15v-4.57A23.13,23.13,0,0,1,5.56,140.75V29.24A23.12,23.12,0,0,1,20.42,7.72V3.14A3.15,3.15,0,0,1,23.57,0h3.28A3.15,3.15,0,0,1,30,3.14V166.85A3.16,3.16,0,0,1,26.85,170Z"/><path class="cls-2" d="M20.42,166.85v-4.57A23.13,23.13,0,0,1,5.56,140.75V29.24A23.12,23.12,0,0,1,20.42,7.72V3.14A3.15,3.15,0,0,1,23.57,0H21.43a3.15,3.15,0,0,0-3.15,3.14V6.7A23.13,23.13,0,0,0,0,29.24V140.75a23.11,23.11,0,0,0,18.28,22.54v3.56A3.16,3.16,0,0,0,21.43,170h2.14A3.16,3.16,0,0,1,20.42,166.85Z"/><rect class="cls-3" x="8.59" y="30.47" width="33.26" height="3.59" rx="1.8" transform="translate(57.49 7.04) rotate(90)"/><rect class="cls-3" x="23.43" y="50.51" width="3.59" height="3.59" rx="1.8" transform="matrix(0, 1, -1, 0, 77.53, 27.08)"/></g></g></svg>